<svg width="20" height="13" viewBox="0 0 20 13" fill="none" xmlns="http://www.w3.org/2000/svg">
<path d="M1.53394 12.4775L9.73467 2.58361L17.7867 12.4775C17.9306 12.6547 18.1247 12.7538 18.3277 12.7538C18.5306 12.7538 18.7263 12.6547 18.8728 12.4775C18.9438 12.3915 19.0004 12.2888 19.0394 12.1755C19.0783 12.0622 19.0989 11.9405 19.0998 11.8175C19.1007 11.6946 19.082 11.5729 19.0447 11.4596C19.0075 11.3463 18.9524 11.2436 18.8827 11.1575L10.3168 0.630012C10.1664 0.445183 9.96353 0.34174 9.75152 0.34174C9.53952 0.34174 9.33512 0.445183 9.18191 0.630012L0.457761 11.1555C0.386315 11.2416 0.329269 11.3445 0.289993 11.4582C0.250715 11.572 0.230002 11.6941 0.229075 11.8175C0.228147 11.941 0.247023 12.0631 0.284592 12.1768C0.32216 12.2905 0.377659 12.3935 0.44781 12.4796C0.59167 12.6567 0.785833 12.7559 0.988794 12.7559C1.19175 12.7559 1.38741 12.6567 1.53393 12.4796L1.53394 12.4775Z" fill="#D75A41"/>
</svg>
